<svg width="635" height="336" viewBox="0 0 635 336" fill="none" xmlns="http://www.w3.org/2000/svg">
<path d="M0 0V162.259H84.386V0H0Z" fill="#EDEDED"/>
<path d="M128.764 0C106.509 0 88.4258 19.4711 88.4258 40.333C88.4258 61.4267 102.567 75.5664 125.287 79.9706V81.5931H88.4258V162.491H213.382C260.212 162.491 268.789 93.6467 222.191 83.2157V81.5931H253.475V0H128.764Z" fill="#EDEDED"/>
<path d="M338.402 162.491C383.146 162.491 419.543 126.099 419.543 81.3614C419.543 36.6242 383.146 0 338.402 0H257.262C257.262 165.968 257.262 -3.477 257.262 162.491H338.402Z" fill="#EDEDED"/>
<path d="M423.642 0V162.491H582.677L521.937 81.1296L582.677 0H423.642Z" fill="#EDEDED"/>
<path d="M609.108 115.436C594.966 115.436 584.143 126.794 584.143 141.165C584.143 154.146 594.966 165.504 609.108 165.504C624.177 165.504 635 154.146 635 141.165C635 126.794 624.177 115.436 609.108 115.436Z" fill="#EDEDED"/>
<path d="M77.8947 167.953H0.231829C0.231829 293.125 0.231829 150.337 0.231829 330.212H78.5902V299.383C114.756 299.383 144.198 269.713 144.198 233.784C144.198 197.16 114.292 167.953 77.8947 167.953Z" fill="#EDEDED"/>
<path d="M226.036 167.953H148.141C148.141 293.356 148.141 150.568 148.141 330.444C195.666 330.444 243.191 330.444 290.717 330.444L266.838 285.707C282.371 273.654 292.108 255.11 292.108 234.016C292.108 197.392 262.433 167.953 226.036 167.953Z" fill="#EDEDED"/>
<path d="M382.434 162.39C334.677 162.39 295.962 201.101 295.962 248.851C295.962 296.602 334.677 335.312 382.434 335.312C430.191 335.312 468.906 296.602 468.906 248.851C468.906 201.101 430.191 162.39 382.434 162.39Z" fill="#EDEDED"/>
</svg>
