<svg width="1191" height="347" viewBox="0 0 1191 347" fill="none" xmlns="http://www.w3.org/2000/svg">
<path fill-rule="evenodd" clip-rule="evenodd" d="M1191 0H0V347H1191V0ZM8 340V5H180.59V340H8ZM185.581 88.1526C185.581 45.1426 222.564 5 268.083 5H522.662V173.217H459.165V176.562C554.469 198.067 536.925 340 441.147 340H185.581V173.217H260.97V169.872C214.504 160.792 185.581 131.641 185.581 88.1526ZM693.573 340C785.084 340 859.525 264.971 859.525 172.739C859.525 80.5064 785.084 5 693.573 5H527.621V340H693.573ZM863.733 340V5H1189L1064.77 172.261L1189 340H863.733Z" fill="white"/>
</svg>
