<svg width="65" height="31" viewBox="0 0 65 31" fill="none" xmlns="http://www.w3.org/2000/svg">
<path d="M0 0H6.65047V31H0V0Z" fill="#EF7800"/>
<path d="M19.2581 25.5855C19.2581 24.8223 18.9742 24.2385 18.4063 23.8345C17.8384 23.4214 16.8162 22.9904 15.3396 22.5415C13.863 22.0835 12.6941 21.6345 11.8328 21.1945C9.48545 19.9913 8.31175 18.3705 8.31175 16.3321C8.31175 15.2725 8.6241 14.3297 9.24883 13.5036C9.88294 12.6685 10.7869 12.0174 11.9605 11.5505C13.1437 11.0836 14.4688 10.8501 15.9359 10.8501C17.4125 10.8501 18.7281 11.106 19.8828 11.6179C21.0376 12.1207 21.932 12.8346 22.5663 13.7595C23.2098 14.6843 23.5317 15.735 23.5317 16.9113H19.2724C19.2724 16.0133 18.9742 15.3175 18.3779 14.8236C17.7816 14.3207 16.9439 14.0693 15.8649 14.0693C14.8238 14.0693 14.0145 14.2803 13.4371 14.7023C12.8598 15.1154 12.5711 15.6631 12.5711 16.3456C12.5711 16.9832 12.9071 17.5174 13.5791 17.9485C14.2606 18.3795 15.2592 18.7835 16.5748 19.1607C18.9978 19.8521 20.7631 20.7097 21.8706 21.7333C22.9779 22.7569 23.5317 24.032 23.5317 25.5586C23.5317 27.2557 22.8549 28.5891 21.5014 29.559C20.1479 30.5198 18.3258 31.0001 16.0353 31.0001C14.4451 31.0001 12.997 30.7263 11.6908 30.1785C10.3846 29.6218 9.38605 28.863 8.69509 27.9022C8.0136 26.9414 7.67285 25.8279 7.67285 24.5619H11.9463C11.9463 26.7259 13.3093 27.8079 16.0353 27.8079C17.048 27.8079 17.8384 27.6149 18.4063 27.2288C18.9742 26.8337 19.2581 26.2859 19.2581 25.5855Z" fill="#EF7800"/>
<path fill-rule="evenodd" clip-rule="evenodd" d="M44.5068 9.30005H48.5994V18.9331L58.1954 9.30005H64.0006L55.2708 18.0635L64.3378 31.0001H59.3239L52.3278 21.0181L48.5994 24.7609V31.0001H44.5068V9.30005Z" fill="#333333"/>
<path fill-rule="evenodd" clip-rule="evenodd" d="M17.906 0H10.2324V9.3H17.906V5.16667H25.068V5.16994H27.3435C29.8293 5.16994 31.7182 5.98551 33.0102 7.61663C34.3022 9.23353 34.9482 11.6164 34.9482 14.7652V16.4034C34.9201 19.4387 34.2531 21.7719 32.947 23.4031C31.6409 25.0341 29.752 25.8497 27.2803 25.8497H25.068V30.9771H27.4067C30.0891 30.963 32.4976 30.3389 34.6322 29.1049C36.767 27.8709 38.417 26.1334 39.5827 23.8924C40.7624 21.6514 41.3522 19.0913 41.3522 16.2119V14.7865C41.3522 11.9072 40.7553 9.33994 39.5617 7.08474C38.3679 4.81536 36.7038 3.07076 34.569 1.85096C32.4484 0.616989 30.0399 0 27.3435 0H17.906Z" fill="#333333"/>
</svg>
