<svg width="1297" height="335" viewBox="0 0 1297 335" fill="none" xmlns="http://www.w3.org/2000/svg">
<path d="M0 0V335C309.284 335 26.373 335 335.657 335V0H168.788V123.648L0 0Z" fill="#EDEDED"/>
<path d="M343.47 0V335H621.586V221.896H552.057V207.518H621.586V127.003H552.057V112.625H621.586V0H343.47Z" fill="#EDEDED"/>
<path d="M629.582 0L723.566 167.26L629.582 335C884.682 335 725.484 335 985.379 335L891.395 167.26L985.379 0C719.73 0 889.956 0 629.582 0Z" fill="#EDEDED"/>
<path d="M1231.79 168.219H1297V0H994.429V168.219H1063.96V335H1231.79V168.219Z" fill="#EDEDED"/>
</svg>
