<?xml version="1.0" standalone="no"?>
<!DOCTYPE svg PUBLIC "-//W3C//DTD SVG 20010904//EN"
 "http://www.w3.org/TR/2001/REC-SVG-20010904/DTD/svg10.dtd">
<svg version="1.0" xmlns="http://www.w3.org/2000/svg"
 width="700.000000pt" height="700.000000pt" viewBox="0 0 700.000000 700.000000"
 preserveAspectRatio="xMidYMid meet">
<metadata>
Created by potrace 1.14, written by Peter Selinger 2001-2017
</metadata>
<g transform="translate(0.000000,700.000000) scale(0.100000,-0.100000)"
fill="#000000" stroke="none">
<path d="M510 3500 l0 -1640 375 0 375 0 0 1640 0 1640 -375 0 -375 0 0 -1640z"/>
<path d="M1660 4600 l0 -540 425 0 425 0 0 211 0 210 468 -3 c450 -4 469 -5
533 -26 241 -80 381 -305 420 -672 17 -168 6 -569 -20 -690 -67 -317 -209
-494 -446 -555 -43 -11 -112 -15 -247 -15 l-188 0 0 -331 0 -331 238 5 c186 4
256 10 327 25 601 134 1000 637 1064 1342 14 146 14 393 1 535 -60 649 -405
1134 -930 1309 -195 65 -217 66 -1194 66 l-876 0 0 -540z"/>
<path d="M4790 2985 l0 -1125 260 0 260 0 0 326 0 326 132 139 131 139 310
-465 310 -465 314 0 313 0 -440 659 -439 660 291 308 c160 169 359 379 441
466 l149 157 -363 0 -364 -1 -390 -413 -390 -413 -3 413 -2 414 -260 0 -260 0
0 -1125z"/>
<path d="M2023 3876 c-272 -52 -452 -192 -520 -405 -22 -67 -24 -89 -20 -186
5 -128 25 -192 91 -288 88 -128 268 -242 526 -332 135 -48 239 -97 268 -128
46 -48 48 -151 4 -190 -52 -47 -205 -63 -307 -33 -93 29 -145 111 -145 233 l0
53 -252 0 -251 0 7 -102 c16 -248 137 -431 359 -542 143 -72 222 -89 412 -90
172 -1 236 9 345 51 138 54 246 147 305 263 64 127 77 307 30 445 -75 223
-237 352 -605 480 -151 52 -252 104 -276 141 -22 32 -20 101 3 133 36 47 89
66 188 66 98 0 133 -12 179 -62 27 -28 46 -98 46 -164 l0 -39 248 2 247 3 -3
85 c-6 167 -55 288 -163 403 -127 137 -295 206 -519 213 -80 2 -151 -1 -197
-10z"/>
</g>
</svg>
